<svg width="128" height="128" viewBox="0 0 240 177" fill="none" xmlns="http://www.w3.org/2000/svg">
<path d="M144.283 86.8954L36.1205 130.458C34.7628 131.005 33.2189 130.348 32.6722 128.99L0.990065 50.3263C0.443272 48.9687 1.1006 47.4248 2.45824 46.878L110.621 3.31513C111.979 2.76834 113.522 3.42567 114.069 4.78331L145.751 83.4471C146.298 84.8047 145.641 86.3486 144.283 86.8954Z" fill="#A67C52"/>
<path d="M68.4203 54.5955C69.0133 54.3567 69.6911 54.332 70.3315 54.5679L144.214 81.9513C145.241 82.3329 145.928 83.3063 145.942 84.3996C145.958 85.4953 145.299 86.4864 144.283 86.8954L36.1204 130.458C35.1049 130.867 33.9425 130.61 33.1945 129.809C32.4475 129.011 32.2676 127.833 32.7434 126.847L67.0235 55.9002C67.3217 55.2863 67.8274 54.8343 68.4203 54.5955Z" fill="#B28F77"/>
<path d="M78.321 79.1779C77.728 79.4167 77.0502 79.4414 76.4098 79.2055L2.5271 51.8221C1.50014 51.4405 0.813737 50.4671 0.798881 49.3738C0.78308 48.2781 1.44272 47.287 2.45819 46.878L110.621 3.31515C111.636 2.90616 112.799 3.16341 113.547 3.96421C114.294 4.76261 114.474 5.9401 113.998 6.92691L79.7178 77.8732C79.4196 78.4871 78.9139 78.9391 78.321 79.1779Z" fill="#C19F85"/>
<path d="M203.534 138.02L107.165 107.322C105.764 106.875 104.99 105.378 105.436 103.978L137.751 2.53604C138.197 1.13544 139.694 0.361693 141.094 0.807855L229.856 29.0828L236.769 42.4584L206.878 136.292C206.432 137.692 204.935 138.466 203.534 138.02Z" fill="#226A93"/>
<path d="M211.97 76.4596L135.889 52.224C134.489 51.7778 132.992 52.5516 132.545 53.9522L117.196 102.137C116.75 103.538 117.524 105.035 118.924 105.481L195.006 129.716C196.406 130.163 197.903 129.389 198.349 127.988L213.699 79.8035C214.145 78.4029 213.371 76.9058 211.97 76.4596Z" fill="#E6E6E6"/>
<path d="M157.323 81.3987L137.035 74.9359C135.633 74.4893 134.86 72.9937 135.306 71.592C135.753 70.1902 137.249 69.4173 138.65 69.8638L158.939 76.3266C160.34 76.7732 161.113 78.2688 160.667 79.6705C160.22 81.0723 158.725 81.8452 157.323 81.3987Z" fill="#444444"/>
<path d="M142.332 93.3835L132.187 90.1521C130.786 89.7056 130.013 88.21 130.459 86.8082C130.906 85.4065 132.401 84.6335 133.803 85.08L143.947 88.3114C145.349 88.758 146.122 90.2536 145.675 91.6553C145.229 93.0571 143.733 93.83 142.332 93.3835Z" fill="#444444"/>
<path d="M205.866 60.548L139.929 39.5438C138.528 39.0976 137.754 37.6005 138.2 36.1999L148.703 3.2314L219.712 25.8513L209.209 58.8198C208.763 60.2204 207.266 60.9942 205.866 60.548Z" fill="#AEABAB"/>
<path d="M205.866 60.548L155.145 44.3909C153.744 43.9448 152.97 42.4476 153.417 41.047L163.919 8.07852L219.712 25.8513L209.209 58.8198C208.763 60.2204 207.266 60.9942 205.866 60.548Z" fill="#E6E6E6"/>
<path d="M197.337 52.2445L187.193 49.0131C185.792 48.5669 185.019 47.0698 185.465 45.6692L191.928 25.3809C192.374 23.9803 193.871 23.2065 195.271 23.6527L205.416 26.8841C206.816 27.3303 207.59 28.8274 207.144 30.228L200.681 50.5163C200.235 51.9169 198.738 52.6907 197.337 52.2445Z" fill="#444444"/>
<circle cx="121" cy="125.706" r="51" fill="#409319"/>
<path d="M120.904 90.6784C114.117 90.6774 107.477 92.6567 101.799 96.3736C96.1199 100.091 91.6491 105.384 88.9343 111.604L99.5832 116.254C101.394 112.106 104.375 108.577 108.163 106.098C111.95 103.62 116.378 102.302 120.904 102.304C123.926 102.313 126.917 102.92 129.704 104.089C132.491 105.258 135.02 106.967 137.145 109.116L125.99 120.16L155.78 123.456V90.6784L145.486 100.862C142.266 97.6225 138.436 95.0541 134.216 93.3059C129.996 91.5578 125.472 90.6647 120.904 90.6784V90.6784Z" fill="white"/>
<path d="M120.904 148.805C117.882 148.796 114.891 148.189 112.104 147.02C109.317 145.851 106.788 144.142 104.663 141.993L115.818 130.949L86.0279 127.653V160.431L96.3222 150.247C99.5418 153.487 103.372 156.055 107.592 157.803C111.812 159.551 116.337 160.444 120.904 160.431C127.691 160.432 134.331 158.452 140.01 154.735C145.688 151.018 150.159 145.725 152.874 139.505L142.225 134.855C140.415 139.003 137.433 142.533 133.646 145.011C129.858 147.489 125.43 148.807 120.904 148.805V148.805Z" fill="white"/>
</svg>
